<svg width="12" height="12" viewBox="0 0 12 12" fill="none" xmlns="http://www.w3.org/2000/svg">
<rect width="12" height="12" fill="#F5F5F5"/>
<g id="Desktop" clip-path="url(#clip0_0_1)">
<rect width="1920" height="1080" transform="translate(-375 -94)" fill="#050505"/>
<g id="Trading Overview">
<g id="Rectangle 23">
<mask id="path-1-inside-1_0_1" fill="white">
<path d="M-375 -27H1095V41H-375V-27Z"/>
</mask>
<path d="M1095 40H-375V42H1095V40Z" fill="#373945" fill-opacity="0.4" mask="url(#path-1-inside-1_0_1)"/>
</g>
<g id="Group 52">
<g id="Group 51">
<g id="Group 50">
<g id="arrow 1">
<path id="Vector" d="M10.4853 10.9853C10.7614 10.9853 10.9853 10.7614 10.9853 10.4853V5.98525C10.9853 5.70911 10.7614 5.48525 10.4853 5.48525C10.2092 5.48525 9.98529 5.70911 9.98529 5.98525V9.98525H5.98529C5.70915 9.98525 5.48529 10.2091 5.48529 10.4853C5.48529 10.7614 5.70915 10.9853 5.98529 10.9853H10.4853ZM1.64641 2.35352L10.1317 10.8388L10.8388 10.1317L2.35356 1.64642L1.64641 2.35352Z" fill="#CD4141"/>
</g>
<path id="( 1.08%)" d="M-5.59375 6.62678C-5.59375 5.30575 -5.41797 4.08949 -5.06641 2.97798C-4.71129 1.86648 -4.16974 0.836647 -3.44176 -0.111506H-1.27379C-1.55078 0.240057 -1.80824 0.669744 -2.04616 1.17756C-2.28409 1.68182 -2.49183 2.2358 -2.66939 2.83949C-2.84695 3.44318 -2.98544 4.06818 -3.08487 4.71449C-3.1843 5.35724 -3.23402 5.99467 -3.23402 6.62678C-3.23402 7.46839 -3.14879 8.31889 -2.97834 9.17827C-2.80433 10.0341 -2.56996 10.8295 -2.27521 11.5646C-1.97692 12.2997 -1.64311 12.9016 -1.27379 13.3704H-3.44176C-4.16974 12.4222 -4.71129 11.3924 -5.06641 10.2809C-5.41797 9.16939 -5.59375 7.95135 -5.59375 6.62678ZM22.1264 0.0909088V11H19.82V2.28018H19.756L17.2578 3.84624V1.80078L19.9585 0.0909088H22.1264ZM25.4809 11.1385C25.1294 11.1385 24.8275 11.0142 24.5754 10.7656C24.3268 10.5135 24.2025 10.2116 24.2025 9.86009C24.2025 9.51207 24.3268 9.21378 24.5754 8.9652C24.8275 8.71662 25.1294 8.59233 25.4809 8.59233C25.8218 8.59233 26.1201 8.71662 26.3758 8.9652C26.6315 9.21378 26.7593 9.51207 26.7593 9.86009C26.7593 10.0945 26.699 10.3093 26.5782 10.5046C26.461 10.6964 26.3066 10.8509 26.1148 10.968C25.923 11.0817 25.7117 11.1385 25.4809 11.1385ZM32.4389 11.2397C31.5227 11.2362 30.7344 11.0107 30.0739 10.5632C29.4169 10.1158 28.9109 9.46768 28.5558 8.61896C28.2042 7.77024 28.0302 6.74929 28.0337 5.55611C28.0337 4.36648 28.2095 3.35263 28.5611 2.51456C28.9162 1.67649 29.4222 1.03906 30.0792 0.602273C30.7397 0.161932 31.5263 -0.058239 32.4389 -0.058239C33.3516 -0.058239 34.1364 0.161932 34.7933 0.602273C35.4538 1.04261 35.9616 1.68182 36.3168 2.51989C36.6719 3.3544 36.8477 4.36648 36.8441 5.55611C36.8441 6.75284 36.6665 7.77557 36.3114 8.62429C35.9599 9.47301 35.4556 10.1211 34.7987 10.5685C34.1417 11.016 33.3551 11.2397 32.4389 11.2397ZM32.4389 9.32741C33.0639 9.32741 33.5629 9.01314 33.9357 8.38459C34.3086 7.75604 34.4933 6.81321 34.4897 5.55611C34.4897 4.72869 34.4045 4.03977 34.234 3.48935C34.0671 2.93892 33.8292 2.52521 33.5202 2.24822C33.2148 1.97124 32.8544 1.83274 32.4389 1.83274C31.8175 1.83274 31.3203 2.14347 30.9474 2.76491C30.5746 3.38636 30.3864 4.31676 30.3828 5.55611C30.3828 6.39418 30.4663 7.09375 30.6332 7.65483C30.8036 8.21236 31.0433 8.63139 31.3523 8.91193C31.6612 9.18892 32.0234 9.32741 32.4389 9.32741ZM42.5583 11.1491C41.738 11.1491 41.0083 11.016 40.3691 10.7496C39.7334 10.4798 39.2345 10.1122 38.8722 9.64702C38.51 9.18182 38.3289 8.65447 38.3289 8.06499C38.3289 7.61044 38.4319 7.19318 38.6379 6.81321C38.8474 6.42969 39.1315 6.11186 39.4901 5.85973C39.8488 5.60405 40.2501 5.4407 40.694 5.36967V5.2951C40.1116 5.17791 39.6393 4.8956 39.2771 4.44815C38.9149 3.99716 38.7338 3.47337 38.7338 2.87678C38.7338 2.31214 38.8989 1.80966 39.2291 1.36932C39.5594 0.925426 40.0122 0.577414 40.5874 0.325284C41.1663 0.0696019 41.8232 -0.058239 42.5583 -0.058239C43.2934 -0.058239 43.9486 0.0696019 44.5239 0.325284C45.1027 0.580966 45.5573 0.930753 45.8875 1.37464C46.2178 1.81499 46.3847 2.3157 46.3882 2.87678C46.3847 3.47692 46.2 4.00071 45.8343 4.44815C45.4685 4.8956 44.9997 5.17791 44.428 5.2951V5.36967C44.8648 5.4407 45.2607 5.60405 45.6159 5.85973C45.9745 6.11186 46.2586 6.42969 46.4681 6.81321C46.6812 7.19318 46.7895 7.61044 46.7931 8.06499C46.7895 8.65447 46.6066 9.18182 46.2444 9.64702C45.8822 10.1122 45.3815 10.4798 44.7423 10.7496C44.1066 11.016 43.3786 11.1491 42.5583 11.1491ZM42.5583 9.45526C42.9241 9.45526 43.2437 9.38956 43.5171 9.25817C43.7906 9.12322 44.0036 8.93857 44.1563 8.70419C44.3126 8.46626 44.3907 8.19283 44.3907 7.88388C44.3907 7.56783 44.3108 7.28906 44.151 7.04759C43.9912 6.80256 43.7746 6.6108 43.5012 6.4723C43.2277 6.33026 42.9134 6.25923 42.5583 6.25923C42.2068 6.25923 41.8925 6.33026 41.6155 6.4723C41.3385 6.6108 41.1201 6.80256 40.9603 7.04759C40.8041 7.28906 40.7259 7.56783 40.7259 7.88388C40.7259 8.19283 40.8023 8.46626 40.955 8.70419C41.1077 8.93857 41.3225 9.12322 41.5995 9.25817C41.8765 9.38956 42.1961 9.45526 42.5583 9.45526ZM42.5583 4.58132C42.8637 4.58132 43.1354 4.51918 43.3733 4.39489C43.6112 4.2706 43.7977 4.09837 43.9326 3.8782C44.0676 3.65803 44.135 3.40412 44.135 3.11648C44.135 2.83239 44.0676 2.58381 43.9326 2.37074C43.7977 2.15412 43.613 1.98544 43.3786 1.8647C43.1443 1.74041 42.8708 1.67827 42.5583 1.67827C42.2494 1.67827 41.9759 1.74041 41.738 1.8647C41.5001 1.98544 41.3137 2.15412 41.1787 2.37074C41.0473 2.58381 40.9816 2.83239 40.9816 3.11648C40.9816 3.40412 41.0491 3.65803 41.184 3.8782C41.319 4.09837 41.5054 4.2706 41.7433 4.39489C41.9813 4.51918 42.2529 4.58132 42.5583 4.58132ZM54.377 8.95455V8.37926C54.377 7.94247 54.4693 7.54119 54.6539 7.17543C54.8422 6.80611 55.1138 6.51136 55.4689 6.29119C55.8276 6.06747 56.2644 5.95561 56.7793 5.95561C57.3013 5.95561 57.7399 6.0657 58.095 6.28587C58.4537 6.50604 58.7235 6.80078 58.9047 7.1701C59.0893 7.53587 59.1816 7.93892 59.1816 8.37926V8.95455C59.1816 9.39134 59.0893 9.79439 58.9047 10.1637C58.72 10.5295 58.4483 10.8224 58.0897 11.0426C57.731 11.2663 57.2942 11.3782 56.7793 11.3782C56.2573 11.3782 55.8187 11.2663 55.4636 11.0426C55.1085 10.8224 54.8386 10.5295 54.6539 10.1637C54.4693 9.79439 54.377 9.39134 54.377 8.95455ZM55.927 8.37926V8.95455C55.927 9.20668 55.9874 9.4446 56.1081 9.66832C56.2324 9.89205 56.4561 10.0039 56.7793 10.0039C57.1025 10.0039 57.3226 9.89382 57.4398 9.67365C57.5605 9.45348 57.6209 9.21378 57.6209 8.95455V8.37926C57.6209 8.12003 57.5641 7.87855 57.4505 7.65483C57.3368 7.43111 57.1131 7.31925 56.7793 7.31925C56.4597 7.31925 56.2377 7.43111 56.1135 7.65483C55.9892 7.87855 55.927 8.12003 55.927 8.37926ZM48.7786 2.71165V2.13636C48.7786 1.69602 48.8727 1.29297 49.0609 0.927201C49.2491 0.557883 49.5208 0.263139 49.8759 0.0429688C50.2346 -0.177202 50.6678 -0.287287 51.1756 -0.287287C51.7012 -0.287287 52.1415 -0.177202 52.4966 0.0429688C52.8517 0.263139 53.1216 0.557883 53.3063 0.927201C53.4909 1.29297 53.5833 1.69602 53.5833 2.13636V2.71165C53.5833 3.15199 53.4892 3.55504 53.301 3.92081C53.1163 4.28658 52.8446 4.57955 52.486 4.79972C52.1309 5.01634 51.6941 5.12464 51.1756 5.12464C50.6571 5.12464 50.2186 5.01456 49.8599 4.79439C49.5048 4.57067 49.2349 4.2777 49.0502 3.91548C48.8691 3.54972 48.7786 3.14844 48.7786 2.71165ZM50.3393 2.13636V2.71165C50.3393 2.97088 50.3997 3.21058 50.5204 3.43075C50.6447 3.65092 50.8631 3.76101 51.1756 3.76101C51.5023 3.76101 51.7243 3.65092 51.8414 3.43075C51.9622 3.21058 52.0225 2.97088 52.0225 2.71165V2.13636C52.0225 1.87713 51.9657 1.63565 51.8521 1.41193C51.7385 1.18821 51.513 1.07635 51.1756 1.07635C50.8596 1.07635 50.6412 1.18999 50.5204 1.41726C50.3997 1.64453 50.3393 1.88423 50.3393 2.13636ZM49.4817 11L56.9817 0.0909088H58.3773L50.8773 11H49.4817ZM65.1422 5.54545C65.1422 6.87003 64.9647 8.08807 64.6096 9.19957C64.258 10.3111 63.7182 11.3409 62.9902 12.2891H60.8223C61.0993 11.9375 61.3567 11.5078 61.5946 11C61.8326 10.4922 62.0403 9.93821 62.2179 9.33807C62.3954 8.73437 62.5339 8.10937 62.6333 7.46307C62.7328 6.81676 62.7825 6.17756 62.7825 5.54545C62.7825 4.70384 62.6955 3.85511 62.5215 2.99929C62.351 2.13991 62.1167 1.34446 61.8184 0.612926C61.5236 -0.122159 61.1916 -0.724077 60.8223 -1.19283H62.9902C63.7182 -0.244674 64.258 0.785156 64.6096 1.89666C64.9647 3.00817 65.1422 4.22443 65.1422 5.54545Z" fill="#CD473B"/>
</g>
</g>
</g>
</g>
</g>
<defs>
<clipPath id="clip0_0_1">
<rect width="1920" height="1080" fill="white" transform="translate(-375 -94)"/>
</clipPath>
</defs>
</svg>
