<svg width="10" height="6" viewBox="0 0 10 6" fill="none" xmlns="http://www.w3.org/2000/svg">
<g clip-path="url(#clip0_39_159)">
<path d="M4.9997 3.49838L8.4197 0.357384C8.54984 0.228532 8.72557 0.15625 8.9087 0.15625C9.09184 0.15625 9.26757 0.228532 9.3977 0.357384C9.46195 0.420657 9.51298 0.496078 9.5478 0.579256C9.58263 0.662434 9.60057 0.751709 9.60057 0.841884C9.60057 0.932059 9.58263 1.02133 9.5478 1.10451C9.51298 1.18769 9.46195 1.26311 9.3977 1.32638L5.4897 5.15638C5.35927 5.28506 5.18342 5.3572 5.0002 5.3572C4.81698 5.3572 4.64113 5.28506 4.5107 5.15638L0.602703 1.32638C0.538453 1.26311 0.487432 1.18769 0.452604 1.10451C0.417777 1.02133 0.399841 0.932058 0.399841 0.841883C0.399841 0.751708 0.417777 0.662434 0.452604 0.579256C0.487432 0.496077 0.538453 0.420657 0.602703 0.357383C0.732838 0.228531 0.90857 0.15625 1.0917 0.15625C1.27484 0.15625 1.45057 0.228531 1.5807 0.357383L4.9997 3.49838Z" fill="white"/>
</g>
<defs>
<clipPath id="clip0_39_159">
<rect width="10" height="6" fill="white"/>
</clipPath>
</defs>
</svg>
